{"accessors":[{"bufferView":2,"componentType":5126,"count":1673,"max":[3.4050230979919434,170.54428100585938,12.74173641204834],"min":[-3.4104301929473877,167.11167907714844,9.8480386734008789],"type":"VEC3"},{"bufferView":2,"byteOffset":20076,"componentType":5126,"count":1673,"max":[0.9961007833480835,0.99836212396621704,0.9997255802154541],"min":[-0.99823474884033203,-0.99894237518310547,-1],"type":"VEC3"},{"bufferView":1,"componentType":5126,"count":1673,"max":[0.36288100481033325,0.99000000953674316],"min":[0.0099999997764825821,0.63711899518966675],"type":"VEC2"},{"bufferView":3,"componentType":5126,"count":1673,"max":[0.99894845485687256,0.99941092729568481,0.99994111061096191,1],"min":[-0.99931436777114868,-0.99932682514190674,-0.99968665838241577,-1],"type":"VEC4"},{"bufferView":0,"componentType":5125,"count":6849,"max":[1672],"min":[0],"type":"SCALAR"},{"bufferView":2,"byteOffset":40152,"componentType":5126,"count":17884,"max":[69.667404174804688,188.99868774414062,24.055673599243164],"min":[-69.666458129882812,0.00050700001884251833,-16.364950180053711],"type":"VEC3"},{"bufferView":2,"byteOffset":254760,"componentType":5126,"count":17884,"max":[0.999988853931427,0.99992305040359497,0.99990952014923096],"min":[-0.99999117851257324,-0.99999690055847168,-0.99964916706085205],"type":"VEC3"},{"bufferView":1,"byteOffset":13384,"componentType":5126,"count":17884,"max":[0.98798400163650513,0.99000000953674316],"min":[0.0099999997764825821,0.0099999997764825821],"type":"VEC2"},{"bufferView":3,"byteOffset":26768,"componentType":5126,"count":17884,"max":[0.99972927570343018,0.99999427795410156,0.99990254640579224,1],"min":[-0.99980485439300537,-0.99998730421066284,-0.99992036819458008,-1],"type":"VEC4"},{"bufferView":0,"byteOffset":27396,"componentType":5125,"count":98790,"max":[17883],"min":[0],"type":"SCALAR"},{"bufferView":2,"byteOffset":469368,"componentType":5126,"count":1156,"max":[6.0549578666687012,179.65576171875,11.062527656555176],"min":[-6.0549578666687012,174.57766723632812,5.9844841957092285],"type":"VEC3"},{"bufferView":2,"byteOffset":483240,"componentType":5126,"count":1156,"max":[1,1,1],"min":[-1,-1,-1],"type":"VEC3"},{"bufferView":1,"byteOffset":156456,"componentType":5126,"count":1156,"max":[0.53831297159194946,0.99000000953674316],"min":[0.037923999130725861,0.47580200433731079],"type":"VEC2"},{"bufferView":3,"byteOffset":312912,"componentType":5126,"count":1156,"max":[0.99888771772384644,0.36644232273101807,0.9999009370803833,1],"min":[-0.45761033892631531,-0.99743574857711792,-0.99989688396453857,1],"type":"VEC4"},{"bufferView":0,"byteOffset":422556,"componentType":5125,"count":6528,"max":[1155],"min":[0],"type":"SCALAR"}],"asset":{"generator":"Sketchfab (OSG glTF plugin)","version":"2.0"},"bufferViews":[{"buffer":0,"byteLength":448668,"byteOffset":0,"name":"ScalarBufferView","target":34962},{"buffer":0,"byteLength":165704,"byteOffset":448668,"byteStride":8,"name":"Vec2BufferView","target":34962},{"buffer":0,"byteLength":497112,"byteOffset":614372,"byteStride":12,"name":"Vec3BufferView","target":34962},{"buffer":0,"byteLength":331408,"byteOffset":1111484,"byteStride":16,"name":"Vec4BufferView","target":34962}],"buffers":[{"byteLength":1442892,"uri":"scene.bin"}],"images":[{"uri":"textures\/Default_baseColor.png"},{"uri":"textures\/Default_metallicRoughness.png"},{"uri":"textures\/Default_normal.png"},{"uri":"textures\/Default_emissive.png"}],"materials":[{"doubleSided":true,"emissiveFactor":[1,1,1],"emissiveTexture":{"index":3,"texCoord":0},"name":"Default","normalTexture":{"index":2,"scale":1,"texCoord":0},"occlusionTexture":{"index":1,"strength":1,"texCoord":0},"pbrMetallicRoughness":{"baseColorFactor":[1,1,1,1],"baseColorTexture":{"index":0,"texCoord":0},"metallicFactor":1,"metallicRoughnessTexture":{"index":1,"texCoord":0},"roughnessFactor":0}}],"meshes":[{"name":"RetopoGroup1","primitives":[{"attributes":{"NORMAL":1,"POSITION":0,"TANGENT":3,"TEXCOORD_0":2},"indices":4,"material":0,"mode":4}]},{"name":"Body","primitives":[{"attributes":{"NORMAL":6,"POSITION":5,"TANGENT":8,"TEXCOORD_0":7},"indices":9,"material":0,"mode":4}]},{"name":"Sphere","primitives":[{"attributes":{"NORMAL":11,"POSITION":10,"TANGENT":13,"TEXCOORD_0":12},"indices":14,"material":0,"mode":4}]}],"nodes":[{"children":[1],"name":"RootNode (gltf orientation matrix)","rotation":[-0.70710678118654746,-0,-0,0.70710678118654757]},{"children":[2],"name":"RootNode (model correction matrix)"},{"children":[3],"matrix":[1,0,0,0,0,0,1,0,0,-1,0,0,0,0,0,1],"name":"Zombiex.Fbx"},{"children":[4,6,8],"name":"RootNode"},{"children":[5],"name":"RetopoGroup1"},{"mesh":0,"name":"RetopoGroup1"},{"children":[7],"name":"Body"},{"mesh":1,"name":"Body"},{"children":[9],"name":"Sphere"},{"mesh":2,"name":"Sphere"}],"samplers":[{"magFilter":9729,"minFilter":9987,"wrapS":10497,"wrapT":10497}],"scene":0,"scenes":[{"name":"OSG_Scene","nodes":[0]}],"textures":[{"sampler":0,"source":0},{"sampler":0,"source":1},{"sampler":0,"source":2},{"sampler":0,"source":3}]}
