{"accessors":[{"bufferView":2,"componentType":5126,"count":1600,"max":[199.50131225585938,210.18359375,402.15740966796875],"min":[0,0,92.972801208496094],"type":"VEC3"},{"bufferView":2,"byteOffset":19200,"componentType":5126,"count":1600,"max":[0.99998223781585693,0.99744874238967896,0.99307370185852051],"min":[-0.99916958808898926,-0.997955322265625,-0.99890047311782837],"type":"VEC3"},{"bufferView":1,"componentType":5126,"count":1600,"max":[0.97710001468658447,1.0084999799728394],"min":[-0.0015999999595806003,0.014200000092387199],"type":"VEC2"},{"bufferView":3,"componentType":5126,"count":1600,"max":[0.99499273300170898,0.9976733922958374,0.97299760580062866,1],"min":[-0.97675293684005737,-0.99005722999572754,-0.9878966212272644,1],"type":"VEC4"},{"bufferView":0,"componentType":5125,"count":3498,"max":[1599],"min":[0],"type":"SCALAR"},{"bufferView":2,"byteOffset":38400,"componentType":5126,"count":1253,"max":[173.76519775390625,182.64920043945312,384.28170776367188],"min":[15.888404846191406,19.872802734375,0],"type":"VEC3"},{"bufferView":2,"byteOffset":53436,"componentType":5126,"count":1253,"max":[0.9983975887298584,0.99983984231948853,0.99375629425048828],"min":[-0.99992191791534424,-0.99985408782958984,-0.99749761819839478],"type":"VEC3"},{"bufferView":1,"byteOffset":12800,"componentType":5126,"count":1253,"max":[2.1875,3.5292999744415283],"min":[-0.71729999780654907,-2.736299991607666],"type":"VEC2"},{"bufferView":3,"byteOffset":25600,"componentType":5126,"count":1253,"max":[0.99992525577545166,0.99895304441452026,0.97948735952377319,1],"min":[-0.99955981969833374,-0.9999881386756897,-0.98445796966552734,-1],"type":"VEC4"},{"bufferView":0,"byteOffset":13992,"componentType":5125,"count":3675,"max":[1252],"min":[0],"type":"SCALAR"}],"asset":{"generator":"Sketchfab (OSG glTF plugin)","version":"2.0"},"bufferViews":[{"buffer":0,"byteLength":28692,"byteOffset":0,"name":"ScalarBufferView","target":34962},{"buffer":0,"byteLength":22824,"byteOffset":28692,"byteStride":8,"name":"Vec2BufferView","target":34962},{"buffer":0,"byteLength":68472,"byteOffset":51516,"byteStride":12,"name":"Vec3BufferView","target":34962},{"buffer":0,"byteLength":45648,"byteOffset":119988,"byteStride":16,"name":"Vec4BufferView","target":34962}],"buffers":[{"byteLength":165636,"uri":"scene.bin"}],"images":[{"uri":"textures\/COM_Nature_TreeA_MotionGreenTree01_MIT01_baseColor.png"},{"uri":"textures\/COM_Nature_TreeA_MotionGreenTree01_MIT02_baseColor.png"},{"uri":"textures\/COM_Nature_TreeA_MotionGreenTree01_MIT02_normal.png"}],"materials":[{"alphaCutoff":0.20000000000000001,"alphaMode":"MASK","doubleSided":true,"emissiveFactor":[0,0,0],"name":"COM_Nature_TreeA_MotionGreenTree01_MIT01","normalFactor":1,"pbrMetallicRoughness":{"baseColorFactor":[1,1,1,1],"baseColorTexture":{"index":0,"texCoord":0},"metallicFactor":0,"roughnessFactor":0.59999999999999998}},{"doubleSided":true,"emissiveFactor":[0,0,0],"name":"COM_Nature_TreeA_MotionGreenTree01_MIT02","normalTexture":{"index":2,"scale":1,"texCoord":0},"pbrMetallicRoughness":{"baseColorFactor":[1,1,1,1],"baseColorTexture":{"index":1,"texCoord":0},"metallicFactor":0,"roughnessFactor":0.59999999999999998}}],"meshes":[{"name":"COM_Nature_TreeA_MotionGreenTree01_SM01","primitives":[{"attributes":{"NORMAL":1,"POSITION":0,"TANGENT":3,"TEXCOORD_0":2},"indices":4,"material":0,"mode":4},{"attributes":{"NORMAL":6,"POSITION":5,"TANGENT":8,"TEXCOORD_0":7},"indices":9,"material":1,"mode":4}]}],"nodes":[{"children":[1],"name":"RootNode (gltf orientation matrix)","rotation":[-0.70710678118654746,-0,-0,0.70710678118654757]},{"children":[2],"name":"RootNode (model correction matrix)"},{"children":[3],"matrix":[1,0,0,0,0,1,0,0,0,0,1,0,-97.855201721191406,-85.383903503417969,-0,1],"name":"7bc746db6a5540e89522a271e5fe315d.obj.cleaner.gles"},{"children":[4],"name":""},{"mesh":0,"name":"COM_Nature_TreeA_MotionGreenTree01_SM01"}],"samplers":[{"magFilter":9729,"minFilter":9987,"wrapS":10497,"wrapT":10497}],"scene":0,"scenes":[{"name":"OSG_Scene","nodes":[0]}],"textures":[{"sampler":0,"source":0},{"sampler":0,"source":1},{"sampler":0,"source":2}]}
