{"accessors":[{"bufferView":2,"componentType":5126,"count":371,"max":[118.72744750976562,214.10311889648438,162.7611083984375],"min":[0,0,0],"type":"VEC3"},{"bufferView":2,"byteOffset":4452,"componentType":5126,"count":371,"max":[0.99943721294403076,0.99281537532806396,0.99475812911987305],"min":[-0.99527877569198608,-0.9927363395690918,-0.99865919351577759],"type":"VEC3"},{"bufferView":1,"componentType":5126,"count":371,"max":[0.99800002574920654,0.97329998016357422],"min":[0,0],"type":"VEC2"},{"bufferView":3,"componentType":5126,"count":371,"max":[0.99904382228851318,0.68000286817550659,0.58809489011764526,1],"min":[-0.97607606649398804,-0.99983882904052734,-0.75018125772476196,1],"type":"VEC4"},{"bufferView":0,"componentType":5125,"count":1884,"max":[370],"min":[0],"type":"SCALAR"}],"asset":{"generator":"Sketchfab (OSG glTF plugin)","version":"2.0"},"bufferViews":[{"buffer":0,"byteLength":7536,"byteOffset":0,"name":"ScalarBufferView","target":34962},{"buffer":0,"byteLength":2968,"byteOffset":7536,"byteStride":8,"name":"Vec2BufferView","target":34962},{"buffer":0,"byteLength":8904,"byteOffset":10504,"byteStride":12,"name":"Vec3BufferView","target":34962},{"buffer":0,"byteLength":5936,"byteOffset":19408,"byteStride":16,"name":"Vec4BufferView","target":34962}],"buffers":[{"byteLength":25344,"uri":"scene.bin"}],"images":[{"uri":"textures\/COM_Nature_R_baseColor.png"},{"uri":"textures\/COM_Nature_R_normal.png"}],"materials":[{"doubleSided":true,"emissiveFactor":[0,0,0],"name":"COM_Nature_R","normalTexture":{"index":1,"scale":1,"texCoord":0},"pbrMetallicRoughness":{"baseColorFactor":[1,1,1,1],"baseColorTexture":{"index":0,"texCoord":0},"metallicFactor":0,"roughnessFactor":0.59999999999999998}}],"meshes":[{"name":"COM_Nature_R.000","primitives":[{"attributes":{"NORMAL":1,"POSITION":0,"TANGENT":3,"TEXCOORD_0":2},"indices":4,"material":0,"mode":4}]}],"nodes":[{"children":[1],"name":"RootNode (gltf orientation matrix)","rotation":[-0.70710678118654746,-0,-0,0.70710678118654757]},{"children":[2],"name":"RootNode (model correction matrix)"},{"children":[3],"matrix":[1,0,0,0,0,1,0,0,0,0,1,0,-63.644466400146484,-115.38230133056641,-74.297721862792969,1],"name":"1c240e9031da49fdb2ef8a8725984386.obj.cleaner.gles"},{"children":[4],"name":""},{"mesh":0,"name":"COM_Nature_R.000"}],"samplers":[{"magFilter":9729,"minFilter":9987,"wrapS":10497,"wrapT":10497}],"scene":0,"scenes":[{"name":"OSG_Scene","nodes":[0]}],"textures":[{"sampler":0,"source":0},{"sampler":0,"source":1}]}
